<?xml version="1.0" standalone="no"?>
<!DOCTYPE svg PUBLIC "-//W3C//DTD SVG 20010904//EN"
 "http://www.w3.org/TR/2001/REC-SVG-20010904/DTD/svg10.dtd">
<svg version="1.0" xmlns="http://www.w3.org/2000/svg"
 width="610.000000pt" height="610.000000pt" viewBox="0 0 610.000000 610.000000"
 preserveAspectRatio="xMidYMid meet">

<g transform="translate(0.000000,610.000000) scale(0.100000,-0.100000)"
fill="#000000" stroke="none">
<path d="M0 3050 l0 -3050 3050 0 3050 0 0 3050 0 3050 -3050 0 -3050 0 0
-3050z m4050 1699 c71 -31 261 -139 302 -171 21 -16 49 -54 65 -86 l28 -57 3
-307 c2 -170 6 -308 8 -308 2 0 91 50 197 112 248 144 267 151 382 146 104 -5
91 1 380 -166 235 -136 266 -158 303 -220 26 -46 27 -51 27 -207 0 -145 -2
-164 -22 -201 -28 -53 -82 -101 -168 -148 -109 -60 -110 -62 -75 -103 44 -50
60 -96 60 -177 0 -61 -5 -79 -31 -124 -34 -61 -69 -86 -264 -188 -120 -63
-133 -68 -206 -72 -57 -3 -93 0 -131 13 -29 9 -163 80 -298 157 -218 125 -247
138 -265 127 -11 -7 -92 -54 -180 -105 l-160 -93 0 -128 c0 -122 -1 -130 -28
-176 -34 -58 -91 -101 -157 -118 l-48 -12 -4 -176 c-3 -169 -4 -178 -31 -233
-16 -32 -44 -70 -63 -86 -39 -32 -471 -282 -524 -303 -21 -9 -73 -14 -131 -14
-96 0 -98 1 -191 48 -52 26 -113 64 -134 84 -21 19 -69 48 -105 63 -157 64
-255 139 -296 227 -16 34 -18 76 -20 386 l-2 348 -183 105 c-101 58 -201 116
-224 129 l-41 24 -32 -49 c-58 -90 -186 -125 -302 -85 -86 30 -330 178 -367
222 l-35 42 -40 -45 c-41 -46 -93 -80 -266 -172 -92 -49 -112 -56 -177 -60
-55 -3 -86 0 -118 12 -54 21 -111 81 -125 133 -7 24 -11 191 -11 454 0 477 2
490 73 560 50 49 489 303 561 324 65 19 154 19 212 -1 41 -14 374 -199 495
-275 25 -16 50 -29 56 -29 5 0 103 54 218 121 332 192 313 184 430 184 117 0
104 5 420 -178 105 -61 201 -117 215 -125 24 -13 35 -8 235 108 261 152 313
179 367 188 l43 8 5 274 5 275 27 47 c30 50 81 87 137 99 53 11 150 0 201 -22z"/>
<path d="M3886 4564 c-3 -9 -6 -184 -6 -390 0 -261 -3 -374 -11 -374 -6 0 -46
19 -89 42 l-78 42 -258 -148 c-143 -82 -262 -154 -266 -160 -4 -6 -8 -146 -8
-312 0 -274 2 -302 18 -316 37 -32 497 -290 517 -290 20 0 479 257 518 290 16
14 17 62 17 733 l0 719 -37 23 c-85 53 -281 157 -296 157 -8 0 -18 -7 -21 -16z
m-91 -1142 l80 -48 0 -108 0 -109 -86 -49 -86 -49 -74 42 c-114 65 -109 57
-109 170 l0 97 88 51 c48 28 92 50 97 50 6 0 46 -21 90 -47z"/>
<path d="M810 3742 l-255 -147 0 -400 c0 -377 1 -400 18 -403 19 -4 276 136
315 171 21 20 22 26 22 219 l0 198 44 28 c24 15 63 38 88 52 l45 23 69 -38
c112 -62 104 -41 104 -254 0 -128 4 -193 13 -210 15 -29 293 -192 322 -188 20
2 20 10 23 398 2 313 0 399 -11 407 -36 30 -504 292 -522 292 -11 0 -135 -67
-275 -148z"/>
<path d="M4780 3759 c-113 -66 -226 -132 -252 -149 l-48 -29 0 -304 c0 -277 2
-305 18 -319 33 -30 496 -288 515 -288 21 0 301 151 327 176 12 12 12 16 -3
31 -9 9 -124 78 -254 153 l-238 136 -3 106 -3 107 78 45 c43 25 85 46 94 46 9
0 53 -21 98 -46 l81 -46 0 -84 c0 -120 3 -121 178 -19 79 46 152 91 163 101
27 24 28 193 2 216 -10 8 -125 76 -255 151 -160 93 -246 137 -265 136 -17 0
-111 -49 -233 -120z"/>
<path d="M2836 3441 c-43 -78 -80 -141 -83 -141 -3 0 -14 10 -25 23 -16 18
-19 19 -14 4 3 -10 6 -120 6 -243 0 -144 4 -224 10 -224 20 0 188 102 194 117
4 8 -5 36 -19 60 -29 53 -31 60 -10 43 9 -7 19 -10 23 -6 11 12 16 472 5 491
-8 14 -25 -10 -87 -124z"/>
<path d="M1966 3124 c-73 -130 -86 -158 -75 -169 23 -21 490 -286 499 -283 8
3 -320 608 -330 607 -3 0 -45 -70 -94 -155z"/>
</g>
</svg>
